# xmcd
#
# Track frame offsets:
#	150
#	15516
#	35724
#	48939
#	72781
#	88588
#	98837
#	108562
#	122267
#	139416
#	156478
#	174297
#	184876
#	197224
#	220653
#	224963
#	238334
#	255206
#	269729
#	285546
#	299376
#
# Disc length: 4273 seconds
#
# Revision: 1
# Processed by: cddbd v1.5.2PL0 Copyright (c) Steve Scherf et al.
# Submitted via: EasyCDDAExtractor 11.5.3.1
#
DISCID=4610af15
DTITLE=Leon Redbone - Live In Paris Olympia, 1992
DYEAR=2005
DGENRE=Blues
TTITLE0=Sweet Mama, Papa's Gettin' Mad
TTITLE1=Ain't Misbehavin'
TTITLE2=She's My Gal
TTITLE3=Goodbye Charlie Blues
TTITLE4=Up A Lazy River
TTITLE5=Csardas
TTITLE6=Polly Wolly Doodle
TTITLE7=Please Don't Talk About Me When I'm Gone
TTITLE8=Waitin' On You
TTITLE9=Think Of Me Thinking Of You
TTITLE10=Marie
TTITLE11=Sugar
TTITLE12=Big Time Woman
TTITLE13=Love Letters In The Sand
TTITLE14=Piano Interlude
TTITLE15=I'm Going Home
TTITLE16=Diddy Wa Diddie
TTITLE17=Play, Gypsy, Play
TTITLE18=The Whistling Colonel
TTITLE19=Gotta Shake That Thing
TTITLE20=So, Relax
EXTD=
EXTT0=
EXTT1=
EXTT2=
EXTT3=
EXTT4=
EXTT5=
EXTT6=
EXTT7=
EXTT8=
EXTT9=
EXTT10=
EXTT11=
EXTT12=
EXTT13=
EXTT14=
EXTT15=
EXTT16=
EXTT17=
EXTT18=
EXTT19=
EXTT20=
PLAYORDER=
